# xmcd
#
# Track frame offsets: 
#        150
#        28000
#        49550
#        77690
#        103585
#        133500
#        156432
#        179220
#        192082
#        218530
#        244602
#        270547
#        297287
#
# Disc length: 4337 seconds
#
# Revision: 3
# Processed by: cddbd v1.5.2PL0 Copyright (c) Steve Scherf et al.
# Submitted via: ExactAudioCopy v0.99pb3
#
DISCID=b410ef0d
DTITLE=King Kooba - Enter The Throne Room
DYEAR=1999
DGENRE=Drum and Bass
TTITLE0=Bitro
TTITLE1=Terminal X
TTITLE2=California Suite
TTITLE3=Fraternity
TTITLE4=Giotto
TTITLE5=Pugwash Beats
TTITLE6=Koobesq
TTITLE7=Friar Fuck
TTITLE8=Spectra In C Minor
TTITLE9=Throne Room
TTITLE10=Catscratch
TTITLE11=Single Malt
TTITLE12=Bonaphyde
EXTD=
EXTT0=
EXTT1=
EXTT2=
EXTT3=
EXTT4=
EXTT5=
EXTT6=
EXTT7=
EXTT8=
EXTT9=
EXTT10=
EXTT11=
EXTT12=
PLAYORDER=
